<svg viewBox="0 0 1530 400" xmlns="http://www.w3.org/2000/svg" font-family="'Public Sans', -apple-system, 'Segoe UI', Roboto, Helvetica, Arial, sans-serif">

  <rect x="10" y="14" width="1510" height="372" rx="18" fill="#f7fbfb" stroke="#cfeaea" stroke-width="1"/>
  <text x="40" y="50" font-size="20" font-weight="600" fill="#0c5460">From patient sample to sequencing reads</text>

  <!-- ========== 01 swab in transport tube ========== -->
  <g transform="rotate(-8 120 200)">
    <rect x="92" y="128" width="56" height="150" rx="26" fill="#ffffff" stroke="#0c5460" stroke-width="2"/>
    <rect x="88" y="116" width="64" height="20" rx="7" fill="#e48430" stroke="#c96a1f" stroke-width="1.5"/>
    <line x1="120" y1="136" x2="120" y2="212" stroke="#15737f" stroke-width="4" stroke-linecap="round"/>
    <ellipse cx="120" cy="222" rx="15" ry="19" fill="#d8f0f0" stroke="#15737f" stroke-width="2"/>
  </g>
  <text x="120" y="326" text-anchor="middle" font-size="11" font-weight="700" letter-spacing="2" fill="#c96a1f">01</text>
  <text x="120" y="350" text-anchor="middle" font-size="16" font-weight="600" fill="#0c5460">Patient sample</text>
  <text x="120" y="370" text-anchor="middle" font-size="12" fill="#15737f">swab collected in clinic</text>

  <line x1="212" y1="200" x2="276" y2="200" stroke="#083e47" stroke-width="3"/>
  <path d="M274 191 L274 209 L288 200 Z" fill="#083e47"/>
  <text x="250" y="184" text-anchor="middle" font-size="13" font-style="italic" fill="#083e47">culture</text>

  <!-- ========== 02 agar plate ========== -->
  <circle cx="380" cy="196" r="76" fill="#eef8f8" stroke="#0c5460" stroke-width="2"/>
  <circle cx="380" cy="196" r="66" fill="#d8f0f0" stroke="#9fcfcf" stroke-width="1"/>
  <circle cx="357.8" cy="150.9" r="4.0" fill="#15737f" opacity="0.75"/>
    <circle cx="344.5" cy="193.4" r="5.2" fill="#15737f" opacity="0.75"/>
    <circle cx="374.6" cy="217.2" r="3.3" fill="#15737f" opacity="0.75"/>
    <circle cx="377.9" cy="228.4" r="3.3" fill="#15737f" opacity="0.75"/>
    <circle cx="405.3" cy="216.3" r="3.4" fill="#15737f" opacity="0.75"/>
    <circle cx="356.9" cy="185.3" r="2.8" fill="#15737f" opacity="0.75"/>
    <circle cx="392.3" cy="236.0" r="3.6" fill="#15737f" opacity="0.75"/>
    <circle cx="374.7" cy="145.4" r="3.7" fill="#15737f" opacity="0.75"/>
    <circle cx="419.3" cy="224.3" r="4.6" fill="#15737f" opacity="0.75"/>
    <circle cx="343.4" cy="224.0" r="3.4" fill="#15737f" opacity="0.75"/>
    <circle cx="424.6" cy="169.6" r="4.7" fill="#15737f" opacity="0.75"/>
    <circle cx="406.2" cy="188.2" r="4.0" fill="#15737f" opacity="0.75"/>
    <circle cx="374.1" cy="145.5" r="3.6" fill="#15737f" opacity="0.75"/>
    <circle cx="408.9" cy="230.3" r="2.9" fill="#15737f" opacity="0.75"/>
    <circle cx="378.7" cy="191.5" r="3.8" fill="#15737f" opacity="0.75"/>
    <circle cx="360.5" cy="198.5" r="3.8" fill="#15737f" opacity="0.75"/>
    <circle cx="345.5" cy="196.0" r="4.9" fill="#15737f" opacity="0.75"/>
    <circle cx="415.7" cy="156.1" r="3.2" fill="#15737f" opacity="0.75"/>
    <circle cx="414.4" cy="201.6" r="2.9" fill="#15737f" opacity="0.75"/>
    <circle cx="371.9" cy="168.0" r="2.9" fill="#15737f" opacity="0.75"/>
    <circle cx="372.4" cy="231.2" r="4.5" fill="#15737f" opacity="0.75"/>
    <circle cx="349.8" cy="203.5" r="4.4" fill="#15737f" opacity="0.75"/>
    <circle cx="404.9" cy="203.3" r="4.4" fill="#15737f" opacity="0.75"/>
    <circle cx="380.2" cy="177.9" r="2.8" fill="#15737f" opacity="0.75"/>
    <circle cx="334.0" cy="194.3" r="2.6" fill="#15737f" opacity="0.75"/>
    <circle cx="352.6" cy="207.5" r="2.8" fill="#15737f" opacity="0.75"/>
  <circle cx="408" cy="168" r="5" fill="#e48430"/>
  <circle cx="408" cy="168" r="12" fill="none" stroke="#c96a1f" stroke-width="1.8"/>
  <line x1="417" y1="159" x2="440" y2="136" stroke="#c96a1f" stroke-width="1.5"/>
  <text x="443" y="133" font-size="11" font-weight="600" fill="#c96a1f">single colony</text>
  <text x="380" y="326" text-anchor="middle" font-size="11" font-weight="700" letter-spacing="2" fill="#c96a1f">02</text>
  <text x="380" y="350" text-anchor="middle" font-size="16" font-weight="600" fill="#0c5460">Isolation on agar</text>
  <text x="380" y="370" text-anchor="middle" font-size="12" fill="#15737f">one organism, one colony</text>

  <line x1="472" y1="200" x2="536" y2="200" stroke="#083e47" stroke-width="3"/>
  <path d="M534 191 L534 209 L548 200 Z" fill="#083e47"/>
  <text x="510" y="184" text-anchor="middle" font-size="13" font-style="italic" fill="#083e47">pick colony</text>

  <!-- ========== 03 cell + DNA extraction ========== -->
  <g>
    <rect x="572" y="158" width="136" height="76" rx="38" fill="#ffffff" stroke="#0c5460" stroke-width="2.5"/>
    <rect x="580" y="166" width="120" height="60" rx="30" fill="#d8f0f0" opacity="0.6"/>
    <path d="M604 196 C 604 176, 636 176, 636 196 C 636 216, 668 216, 668 196 C 668 178, 646 174, 630 184"
          fill="none" stroke="#15737f" stroke-width="2.6" stroke-linecap="round"/>
    <!-- lysis: membrane opening, DNA escaping -->
    <path d="M700 172 l14 -9 M706 186 l16 -2 M700 220 l14 9" stroke="#c96a1f" stroke-width="2" stroke-linecap="round"/>
    <path d="M712 196 C 728 190, 736 206, 752 200" fill="none" stroke="#0c5460" stroke-width="2.6" stroke-linecap="round"/>
  </g>
  <text x="640" y="326" text-anchor="middle" font-size="11" font-weight="700" letter-spacing="2" fill="#c96a1f">03</text>
  <text x="640" y="350" text-anchor="middle" font-size="16" font-weight="600" fill="#0c5460">DNA extraction</text>
  <text x="640" y="370" text-anchor="middle" font-size="12" fill="#15737f">cell lysed, DNA released</text>

  <line x1="760" y1="200" x2="805" y2="200" stroke="#083e47" stroke-width="3"/>
  <path d="M795 191 L795 209 L809 200 Z" fill="#083e47"/>
  <text x="791" y="184" text-anchor="middle" font-size="13" font-style="italic" fill="#083e47">purify</text>

  <!-- ========== 04 genomic DNA ========== -->
  <g>
    <line x1="838.0" y1="216.0" x2="838.0" y2="184.0" stroke="#9fcfcf" stroke-width="1.5" stroke-linecap="round" opacity="0.85"/>
    <line x1="846.0" y1="214.7" x2="846.0" y2="185.3" stroke="#9fcfcf" stroke-width="1.5" stroke-linecap="round" opacity="0.85"/>
    <line x1="862.0" y1="183.0" x2="862.0" y2="217.0" stroke="#9fcfcf" stroke-width="1.5" stroke-linecap="round" opacity="0.85"/>
    <line x1="870.0" y1="186.8" x2="870.0" y2="213.2" stroke="#9fcfcf" stroke-width="1.5" stroke-linecap="round" opacity="0.85"/>
    <line x1="878.0" y1="204.9" x2="878.0" y2="195.1" stroke="#9fcfcf" stroke-width="1.5" stroke-linecap="round" opacity="0.85"/>
    <line x1="886.0" y1="217.6" x2="886.0" y2="182.4" stroke="#9fcfcf" stroke-width="1.5" stroke-linecap="round" opacity="0.85"/>
    <line x1="894.0" y1="211.4" x2="894.0" y2="188.6" stroke="#9fcfcf" stroke-width="1.5" stroke-linecap="round" opacity="0.85"/>
    <line x1="902.0" y1="192.8" x2="902.0" y2="207.2" stroke="#9fcfcf" stroke-width="1.5" stroke-linecap="round" opacity="0.85"/>
    <line x1="910.0" y1="182.0" x2="910.0" y2="218.0" stroke="#9fcfcf" stroke-width="1.5" stroke-linecap="round" opacity="0.85"/>
    <line x1="918.0" y1="190.6" x2="918.0" y2="209.4" stroke="#9fcfcf" stroke-width="1.5" stroke-linecap="round" opacity="0.85"/>
    <line x1="926.0" y1="209.4" x2="926.0" y2="190.6" stroke="#9fcfcf" stroke-width="1.5" stroke-linecap="round" opacity="0.85"/>
    <line x1="934.0" y1="218.0" x2="934.0" y2="182.0" stroke="#9fcfcf" stroke-width="1.5" stroke-linecap="round" opacity="0.85"/>
    <line x1="942.0" y1="207.2" x2="942.0" y2="192.8" stroke="#9fcfcf" stroke-width="1.5" stroke-linecap="round" opacity="0.85"/>
    <line x1="950.0" y1="188.6" x2="950.0" y2="211.4" stroke="#9fcfcf" stroke-width="1.5" stroke-linecap="round" opacity="0.85"/>
    <line x1="958.0" y1="182.4" x2="958.0" y2="217.6" stroke="#9fcfcf" stroke-width="1.5" stroke-linecap="round" opacity="0.85"/>
    <line x1="966.0" y1="195.1" x2="966.0" y2="204.9" stroke="#9fcfcf" stroke-width="1.5" stroke-linecap="round" opacity="0.85"/>
    <line x1="974.0" y1="213.2" x2="974.0" y2="186.8" stroke="#9fcfcf" stroke-width="1.5" stroke-linecap="round" opacity="0.85"/>
    <line x1="982.0" y1="217.0" x2="982.0" y2="183.0" stroke="#9fcfcf" stroke-width="1.5" stroke-linecap="round" opacity="0.85"/>
    <line x1="998.0" y1="185.3" x2="998.0" y2="214.7" stroke="#9fcfcf" stroke-width="1.5" stroke-linecap="round" opacity="0.85"/>
    <line x1="1006.0" y1="184.0" x2="1006.0" y2="216.0" stroke="#9fcfcf" stroke-width="1.5" stroke-linecap="round" opacity="0.85"/>
    <line x1="1022.0" y1="216.0" x2="1022.0" y2="184.0" stroke="#9fcfcf" stroke-width="1.5" stroke-linecap="round" opacity="0.85"/>
    <line x1="1030.0" y1="214.7" x2="1030.0" y2="185.3" stroke="#9fcfcf" stroke-width="1.5" stroke-linecap="round" opacity="0.85"/>
    <line x1="1046.0" y1="183.0" x2="1046.0" y2="217.0" stroke="#9fcfcf" stroke-width="1.5" stroke-linecap="round" opacity="0.85"/>
    <line x1="1054.0" y1="186.8" x2="1054.0" y2="213.2" stroke="#9fcfcf" stroke-width="1.5" stroke-linecap="round" opacity="0.85"/>
    <line x1="1062.0" y1="204.9" x2="1062.0" y2="195.1" stroke="#9fcfcf" stroke-width="1.5" stroke-linecap="round" opacity="0.85"/>
    <line x1="1070.0" y1="217.6" x2="1070.0" y2="182.4" stroke="#9fcfcf" stroke-width="1.5" stroke-linecap="round" opacity="0.85"/>
    <line x1="1078.0" y1="211.4" x2="1078.0" y2="188.6" stroke="#9fcfcf" stroke-width="1.5" stroke-linecap="round" opacity="0.85"/>
    <line x1="1086.0" y1="192.8" x2="1086.0" y2="207.2" stroke="#9fcfcf" stroke-width="1.5" stroke-linecap="round" opacity="0.85"/>
    <line x1="1094.0" y1="182.0" x2="1094.0" y2="218.0" stroke="#9fcfcf" stroke-width="1.5" stroke-linecap="round" opacity="0.85"/>
    <line x1="1102.0" y1="190.6" x2="1102.0" y2="209.4" stroke="#9fcfcf" stroke-width="1.5" stroke-linecap="round" opacity="0.85"/>
    <path d="M 830.0 200.0 L 830.8 202.0 L 831.7 204.1 L 832.5 206.0 L 833.3 207.9 L 834.2 209.7 L 835.0 211.4 L 835.8 212.9 L 836.7 214.2 L 837.5 215.4 L 838.3 216.3 L 839.2 217.1 L 840.0 217.6 L 840.8 217.9 L 841.7 218.0 L 842.5 217.8 L 843.3 217.4 L 844.2 216.8 L 845.0 216.0 L 845.8 214.9 L 846.7 213.7 L 847.5 212.3 L 848.3 210.7 L 849.2 209.0 L 850.0 207.2 L 850.8 205.2 L 851.7 203.3 L 852.5 201.2 L 853.3 199.2 L 854.2 197.1 L 855.0 195.1 L 855.8 193.2 L 856.7 191.4 L 857.5 189.6 L 858.3 188.0 L 859.2 186.6 L 860.0 185.3 L 860.8 184.2 L 861.7 183.3 L 862.5 182.7 L 863.3 182.2 L 864.2 182.0 L 865.0 182.0 L 865.8 182.3 L 866.7 182.8 L 867.5 183.5 L 868.3 184.4 L 869.2 185.5 L 870.0 186.8 L 870.8 188.3 L 871.7 190.0 L 872.5 191.7 L 873.3 193.6 L 874.2 195.5 L 875.0 197.5 L 875.8 199.6 L 876.7 201.6 L 877.5 203.7 L 878.3 205.6 L 879.2 207.5 L 880.0 209.4 L 880.8 211.0 L 881.7 212.6 L 882.5 214.0 L 883.3 215.2 L 884.2 216.2 L 885.0 217.0 L 885.8 217.5 L 886.7 217.9 L 887.5 218.0 L 888.3 217.9 L 889.2 217.5 L 890.0 217.0 L 890.8 216.2 L 891.7 215.2 L 892.5 214.0 L 893.3 212.6 L 894.2 211.0 L 895.0 209.4 L 895.8 207.5 L 896.7 205.6 L 897.5 203.7 L 898.3 201.6 L 899.2 199.6 L 900.0 197.5 L 900.8 195.5 L 901.7 193.6 L 902.5 191.7 L 903.3 190.0 L 904.2 188.3 L 905.0 186.8 L 905.8 185.5 L 906.7 184.4 L 907.5 183.5 L 908.3 182.8 L 909.2 182.3 L 910.0 182.0 L 910.8 182.0 L 911.7 182.2 L 912.5 182.7 L 913.3 183.3 L 914.2 184.2 L 915.0 185.3 L 915.8 186.6 L 916.7 188.0 L 917.5 189.6 L 918.3 191.4 L 919.2 193.2 L 920.0 195.1 L 920.8 197.1 L 921.7 199.2 L 922.5 201.2 L 923.3 203.3 L 924.2 205.2 L 925.0 207.2 L 925.8 209.0 L 926.7 210.7 L 927.5 212.3 L 928.3 213.7 L 929.2 214.9 L 930.0 216.0 L 930.8 216.8 L 931.7 217.4 L 932.5 217.8 L 933.3 218.0 L 934.2 217.9 L 935.0 217.6 L 935.8 217.1 L 936.7 216.3 L 937.5 215.4 L 938.3 214.2 L 939.2 212.9 L 940.0 211.4 L 940.8 209.7 L 941.7 207.9 L 942.5 206.0 L 943.3 204.1 L 944.2 202.0 L 945.0 200.0 L 945.8 198.0 L 946.7 195.9 L 947.5 194.0 L 948.3 192.1 L 949.2 190.3 L 950.0 188.6 L 950.8 187.1 L 951.7 185.8 L 952.5 184.6 L 953.3 183.7 L 954.2 182.9 L 955.0 182.4 L 955.8 182.1 L 956.7 182.0 L 957.5 182.2 L 958.3 182.6 L 959.2 183.2 L 960.0 184.0 L 960.8 185.1 L 961.7 186.3 L 962.5 187.7 L 963.3 189.3 L 964.2 191.0 L 965.0 192.8 L 965.8 194.8 L 966.7 196.7 L 967.5 198.8 L 968.3 200.8 L 969.2 202.9 L 970.0 204.9 L 970.8 206.8 L 971.7 208.6 L 972.5 210.4 L 973.3 212.0 L 974.2 213.4 L 975.0 214.7 L 975.8 215.8 L 976.7 216.7 L 977.5 217.3 L 978.3 217.8 L 979.2 218.0 L 980.0 218.0 L 980.8 217.7 L 981.7 217.2 L 982.5 216.5 L 983.3 215.6 L 984.2 214.5 L 985.0 213.2 L 985.8 211.7 L 986.7 210.0 L 987.5 208.3 L 988.3 206.4 L 989.2 204.5 L 990.0 202.5 L 990.8 200.4 L 991.7 198.4 L 992.5 196.3 L 993.3 194.4 L 994.2 192.5 L 995.0 190.6 L 995.8 189.0 L 996.7 187.4 L 997.5 186.0 L 998.3 184.8 L 999.2 183.8 L 1000.0 183.0 L 1000.8 182.5 L 1001.7 182.1 L 1002.5 182.0 L 1003.3 182.1 L 1004.2 182.5 L 1005.0 183.0 L 1005.8 183.8 L 1006.7 184.8 L 1007.5 186.0 L 1008.3 187.4 L 1009.2 189.0 L 1010.0 190.6 L 1010.8 192.5 L 1011.7 194.4 L 1012.5 196.3 L 1013.3 198.4 L 1014.2 200.4 L 1015.0 202.5 L 1015.8 204.5 L 1016.7 206.4 L 1017.5 208.3 L 1018.3 210.0 L 1019.2 211.7 L 1020.0 213.2 L 1020.8 214.5 L 1021.7 215.6 L 1022.5 216.5 L 1023.3 217.2 L 1024.2 217.7 L 1025.0 218.0 L 1025.8 218.0 L 1026.7 217.8 L 1027.5 217.3 L 1028.3 216.7 L 1029.2 215.8 L 1030.0 214.7 L 1030.8 213.4 L 1031.7 212.0 L 1032.5 210.4 L 1033.3 208.6 L 1034.2 206.8 L 1035.0 204.9 L 1035.8 202.9 L 1036.7 200.8 L 1037.5 198.8 L 1038.3 196.7 L 1039.2 194.8 L 1040.0 192.8 L 1040.8 191.0 L 1041.7 189.3 L 1042.5 187.7 L 1043.3 186.3 L 1044.2 185.1 L 1045.0 184.0 L 1045.8 183.2 L 1046.7 182.6 L 1047.5 182.2 L 1048.3 182.0 L 1049.2 182.1 L 1050.0 182.4 L 1050.8 182.9 L 1051.7 183.7 L 1052.5 184.6 L 1053.3 185.8 L 1054.2 187.1 L 1055.0 188.6 L 1055.8 190.3 L 1056.7 192.1 L 1057.5 194.0 L 1058.3 195.9 L 1059.2 198.0 L 1060.0 200.0 L 1060.8 202.0 L 1061.7 204.1 L 1062.5 206.0 L 1063.3 207.9 L 1064.2 209.7 L 1065.0 211.4 L 1065.8 212.9 L 1066.7 214.2 L 1067.5 215.4 L 1068.3 216.3 L 1069.2 217.1 L 1070.0 217.6 L 1070.8 217.9 L 1071.7 218.0 L 1072.5 217.8 L 1073.3 217.4 L 1074.2 216.8 L 1075.0 216.0 L 1075.8 214.9 L 1076.7 213.7 L 1077.5 212.3 L 1078.3 210.7 L 1079.2 209.0 L 1080.0 207.2 L 1080.8 205.2 L 1081.7 203.3 L 1082.5 201.2 L 1083.3 199.2 L 1084.2 197.1 L 1085.0 195.1 L 1085.8 193.2 L 1086.7 191.4 L 1087.5 189.6 L 1088.3 188.0 L 1089.2 186.6 L 1090.0 185.3 L 1090.8 184.2 L 1091.7 183.3 L 1092.5 182.7 L 1093.3 182.2 L 1094.2 182.0 L 1095.0 182.0 L 1095.8 182.3 L 1096.7 182.8 L 1097.5 183.5 L 1098.3 184.4 L 1099.2 185.5 L 1100.0 186.8 L 1100.8 188.3 L 1101.7 190.0 L 1102.5 191.7 L 1103.3 193.6 L 1104.2 195.5 L 1105.0 197.5 L 1105.8 199.6 L 1106.7 201.6 L 1107.5 203.7 L 1108.3 205.6 L 1109.2 207.5 L 1110.0 209.4" fill="none" stroke="#0c5460" stroke-width="3.2" stroke-linecap="round"/>
    <path d="M 830.0 200.0 L 830.8 198.0 L 831.7 195.9 L 832.5 194.0 L 833.3 192.1 L 834.2 190.3 L 835.0 188.6 L 835.8 187.1 L 836.7 185.8 L 837.5 184.6 L 838.3 183.7 L 839.2 182.9 L 840.0 182.4 L 840.8 182.1 L 841.7 182.0 L 842.5 182.2 L 843.3 182.6 L 844.2 183.2 L 845.0 184.0 L 845.8 185.1 L 846.7 186.3 L 847.5 187.7 L 848.3 189.3 L 849.2 191.0 L 850.0 192.8 L 850.8 194.8 L 851.7 196.7 L 852.5 198.8 L 853.3 200.8 L 854.2 202.9 L 855.0 204.9 L 855.8 206.8 L 856.7 208.6 L 857.5 210.4 L 858.3 212.0 L 859.2 213.4 L 860.0 214.7 L 860.8 215.8 L 861.7 216.7 L 862.5 217.3 L 863.3 217.8 L 864.2 218.0 L 865.0 218.0 L 865.8 217.7 L 866.7 217.2 L 867.5 216.5 L 868.3 215.6 L 869.2 214.5 L 870.0 213.2 L 870.8 211.7 L 871.7 210.0 L 872.5 208.3 L 873.3 206.4 L 874.2 204.5 L 875.0 202.5 L 875.8 200.4 L 876.7 198.4 L 877.5 196.3 L 878.3 194.4 L 879.2 192.5 L 880.0 190.6 L 880.8 189.0 L 881.7 187.4 L 882.5 186.0 L 883.3 184.8 L 884.2 183.8 L 885.0 183.0 L 885.8 182.5 L 886.7 182.1 L 887.5 182.0 L 888.3 182.1 L 889.2 182.5 L 890.0 183.0 L 890.8 183.8 L 891.7 184.8 L 892.5 186.0 L 893.3 187.4 L 894.2 189.0 L 895.0 190.6 L 895.8 192.5 L 896.7 194.4 L 897.5 196.3 L 898.3 198.4 L 899.2 200.4 L 900.0 202.5 L 900.8 204.5 L 901.7 206.4 L 902.5 208.3 L 903.3 210.0 L 904.2 211.7 L 905.0 213.2 L 905.8 214.5 L 906.7 215.6 L 907.5 216.5 L 908.3 217.2 L 909.2 217.7 L 910.0 218.0 L 910.8 218.0 L 911.7 217.8 L 912.5 217.3 L 913.3 216.7 L 914.2 215.8 L 915.0 214.7 L 915.8 213.4 L 916.7 212.0 L 917.5 210.4 L 918.3 208.6 L 919.2 206.8 L 920.0 204.9 L 920.8 202.9 L 921.7 200.8 L 922.5 198.8 L 923.3 196.7 L 924.2 194.8 L 925.0 192.8 L 925.8 191.0 L 926.7 189.3 L 927.5 187.7 L 928.3 186.3 L 929.2 185.1 L 930.0 184.0 L 930.8 183.2 L 931.7 182.6 L 932.5 182.2 L 933.3 182.0 L 934.2 182.1 L 935.0 182.4 L 935.8 182.9 L 936.7 183.7 L 937.5 184.6 L 938.3 185.8 L 939.2 187.1 L 940.0 188.6 L 940.8 190.3 L 941.7 192.1 L 942.5 194.0 L 943.3 195.9 L 944.2 198.0 L 945.0 200.0 L 945.8 202.0 L 946.7 204.1 L 947.5 206.0 L 948.3 207.9 L 949.2 209.7 L 950.0 211.4 L 950.8 212.9 L 951.7 214.2 L 952.5 215.4 L 953.3 216.3 L 954.2 217.1 L 955.0 217.6 L 955.8 217.9 L 956.7 218.0 L 957.5 217.8 L 958.3 217.4 L 959.2 216.8 L 960.0 216.0 L 960.8 214.9 L 961.7 213.7 L 962.5 212.3 L 963.3 210.7 L 964.2 209.0 L 965.0 207.2 L 965.8 205.2 L 966.7 203.3 L 967.5 201.2 L 968.3 199.2 L 969.2 197.1 L 970.0 195.1 L 970.8 193.2 L 971.7 191.4 L 972.5 189.6 L 973.3 188.0 L 974.2 186.6 L 975.0 185.3 L 975.8 184.2 L 976.7 183.3 L 977.5 182.7 L 978.3 182.2 L 979.2 182.0 L 980.0 182.0 L 980.8 182.3 L 981.7 182.8 L 982.5 183.5 L 983.3 184.4 L 984.2 185.5 L 985.0 186.8 L 985.8 188.3 L 986.7 190.0 L 987.5 191.7 L 988.3 193.6 L 989.2 195.5 L 990.0 197.5 L 990.8 199.6 L 991.7 201.6 L 992.5 203.7 L 993.3 205.6 L 994.2 207.5 L 995.0 209.4 L 995.8 211.0 L 996.7 212.6 L 997.5 214.0 L 998.3 215.2 L 999.2 216.2 L 1000.0 217.0 L 1000.8 217.5 L 1001.7 217.9 L 1002.5 218.0 L 1003.3 217.9 L 1004.2 217.5 L 1005.0 217.0 L 1005.8 216.2 L 1006.7 215.2 L 1007.5 214.0 L 1008.3 212.6 L 1009.2 211.0 L 1010.0 209.4 L 1010.8 207.5 L 1011.7 205.6 L 1012.5 203.7 L 1013.3 201.6 L 1014.2 199.6 L 1015.0 197.5 L 1015.8 195.5 L 1016.7 193.6 L 1017.5 191.7 L 1018.3 190.0 L 1019.2 188.3 L 1020.0 186.8 L 1020.8 185.5 L 1021.7 184.4 L 1022.5 183.5 L 1023.3 182.8 L 1024.2 182.3 L 1025.0 182.0 L 1025.8 182.0 L 1026.7 182.2 L 1027.5 182.7 L 1028.3 183.3 L 1029.2 184.2 L 1030.0 185.3 L 1030.8 186.6 L 1031.7 188.0 L 1032.5 189.6 L 1033.3 191.4 L 1034.2 193.2 L 1035.0 195.1 L 1035.8 197.1 L 1036.7 199.2 L 1037.5 201.2 L 1038.3 203.3 L 1039.2 205.2 L 1040.0 207.2 L 1040.8 209.0 L 1041.7 210.7 L 1042.5 212.3 L 1043.3 213.7 L 1044.2 214.9 L 1045.0 216.0 L 1045.8 216.8 L 1046.7 217.4 L 1047.5 217.8 L 1048.3 218.0 L 1049.2 217.9 L 1050.0 217.6 L 1050.8 217.1 L 1051.7 216.3 L 1052.5 215.4 L 1053.3 214.2 L 1054.2 212.9 L 1055.0 211.4 L 1055.8 209.7 L 1056.7 207.9 L 1057.5 206.0 L 1058.3 204.1 L 1059.2 202.0 L 1060.0 200.0 L 1060.8 198.0 L 1061.7 195.9 L 1062.5 194.0 L 1063.3 192.1 L 1064.2 190.3 L 1065.0 188.6 L 1065.8 187.1 L 1066.7 185.8 L 1067.5 184.6 L 1068.3 183.7 L 1069.2 182.9 L 1070.0 182.4 L 1070.8 182.1 L 1071.7 182.0 L 1072.5 182.2 L 1073.3 182.6 L 1074.2 183.2 L 1075.0 184.0 L 1075.8 185.1 L 1076.7 186.3 L 1077.5 187.7 L 1078.3 189.3 L 1079.2 191.0 L 1080.0 192.8 L 1080.8 194.8 L 1081.7 196.7 L 1082.5 198.8 L 1083.3 200.8 L 1084.2 202.9 L 1085.0 204.9 L 1085.8 206.8 L 1086.7 208.6 L 1087.5 210.4 L 1088.3 212.0 L 1089.2 213.4 L 1090.0 214.7 L 1090.8 215.8 L 1091.7 216.7 L 1092.5 217.3 L 1093.3 217.8 L 1094.2 218.0 L 1095.0 218.0 L 1095.8 217.7 L 1096.7 217.2 L 1097.5 216.5 L 1098.3 215.6 L 1099.2 214.5 L 1100.0 213.2 L 1100.8 211.7 L 1101.7 210.0 L 1102.5 208.3 L 1103.3 206.4 L 1104.2 204.5 L 1105.0 202.5 L 1105.8 200.4 L 1106.7 198.4 L 1107.5 196.3 L 1108.3 194.4 L 1109.2 192.5 L 1110.0 190.6" fill="none" stroke="#15737f" stroke-width="3.2" stroke-linecap="round"/>
  </g>
  <text x="822" y="204" text-anchor="end"   font-size="12" fill="#083e47">5&#8242;</text>
  <text x="1118" y="204" text-anchor="start" font-size="12" fill="#083e47">3&#8242;</text>
  <text x="970" y="326" text-anchor="middle" font-size="11" font-weight="700" letter-spacing="2" fill="#c96a1f">04</text>
  <text x="970" y="350" text-anchor="middle" font-size="16" font-weight="600" fill="#0c5460">Genomic DNA</text>
  <text x="970" y="370" text-anchor="middle" font-size="12" fill="#15737f">long, intact molecules</text>

  <line x1="1146" y1="200" x2="1212" y2="200" stroke="#083e47" stroke-width="3"/>
  <path d="M1210 191 L1210 209 L1224 200 Z" fill="#083e47"/>
  <text x="1185" y="184" text-anchor="middle" font-size="13" font-style="italic" fill="#083e47">fragment</text>

  <!-- ========== 05 fragmented DNA / reads ========== -->
  <g>
    <g transform="rotate(11.8 1301 169)"><rect x="1264" y="163" width="74" height="12" rx="6" fill="#0c5460"/><rect x="1269" y="166" width="64" height="1.6" rx="0.8" fill="#ffffff" opacity="0.25"/><path d="M1264 163 L1264 175 L1257 169 Z" fill="#0c5460"/></g>
    <g transform="rotate(13.6 1421 175)"><rect x="1392" y="169" width="58" height="12" rx="6" fill="#15737f"/><rect x="1397" y="172" width="48" height="1.6" rx="0.8" fill="#ffffff" opacity="0.25"/><path d="M1392 169 L1392 181 L1385 175 Z" fill="#15737f"/></g>
    <g transform="rotate(16.0 1277 204)"><rect x="1248" y="198" width="58" height="12" rx="6" fill="#0c5460"/><rect x="1253" y="200" width="48" height="1.6" rx="0.8" fill="#ffffff" opacity="0.25"/><path d="M1306 198 L1306 210 L1313 204 Z" fill="#0c5460"/></g>
    <g transform="rotate(-4.8 1404 207)"><rect x="1371" y="201" width="66" height="12" rx="6" fill="#15737f"/><rect x="1376" y="204" width="56" height="1.6" rx="0.8" fill="#ffffff" opacity="0.25"/><path d="M1437 201 L1437 213 L1444 207 Z" fill="#15737f"/></g>
    <g transform="rotate(-3.7 1277 223)"><rect x="1244" y="217" width="66" height="12" rx="6" fill="#0c5460"/><rect x="1249" y="220" width="56" height="1.6" rx="0.8" fill="#ffffff" opacity="0.25"/><path d="M1310 217 L1310 229 L1317 223 Z" fill="#0c5460"/></g>
    <g transform="rotate(-14.9 1378 225)"><rect x="1337" y="219" width="82" height="12" rx="6" fill="#15737f"/><rect x="1342" y="222" width="72" height="1.6" rx="0.8" fill="#ffffff" opacity="0.25"/><path d="M1419 219 L1419 231 L1426 225 Z" fill="#15737f"/></g>
  </g>
  <text x="1345" y="326" text-anchor="middle" font-size="11" font-weight="700" letter-spacing="2" fill="#c96a1f">05</text>
  <text x="1345" y="350" text-anchor="middle" font-size="16" font-weight="600" fill="#0c5460">Sequencing reads</text>
  <text x="1345" y="370" text-anchor="middle" font-size="12" fill="#15737f">short, unordered fragments</text>

</svg>